<svg width="32" height="32" viewBox="0 0 32 32" fill="none" xmlns="http://www.w3.org/2000/svg">
<rect width="32" height="32" rx="10" fill="white"/>
<rect width="32" height="32" rx="10" fill="url(#paint0_radial_679_8559)" fill-opacity="0.8"/>
<path d="M7.472 9.8H14.16V16.936C14.16 17.544 14.08 18.1147 13.92 18.648C13.7707 19.1813 13.4933 19.656 13.088 20.072C12.832 20.328 12.5547 20.5307 12.256 20.68C11.968 20.8293 11.6853 20.9413 11.408 21.016C11.1307 21.0907 10.8693 21.1387 10.624 21.16C10.3787 21.1813 10.176 21.192 10.016 21.192C9.504 21.192 9.008 21.1333 8.528 21.016C8.048 20.9093 7.568 20.712 7.088 20.424L7.872 18.664C8.27733 18.8987 8.624 19.0533 8.912 19.128C9.21067 19.2027 9.552 19.24 9.936 19.24C10.1707 19.24 10.4213 19.1973 10.688 19.112C10.9653 19.016 11.2053 18.8613 11.408 18.648C11.7813 18.2427 11.968 17.6773 11.968 16.952V11.752H7.472V9.8ZM17.0658 9.8H23.7538V16.936C23.7538 17.544 23.6738 18.1147 23.5138 18.648C23.3644 19.1813 23.0871 19.656 22.6818 20.072C22.4258 20.328 22.1484 20.5307 21.8498 20.68C21.5618 20.8293 21.2791 20.9413 21.0018 21.016C20.7244 21.0907 20.4631 21.1387 20.2178 21.16C19.9724 21.1813 19.7698 21.192 19.6098 21.192C19.0978 21.192 18.6018 21.1333 18.1218 21.016C17.6418 20.9093 17.1618 20.712 16.6818 20.424L17.4658 18.664C17.8711 18.8987 18.2178 19.0533 18.5058 19.128C18.8044 19.2027 19.1458 19.24 19.5298 19.24C19.7644 19.24 20.0151 19.1973 20.2818 19.112C20.5591 19.016 20.7991 18.8613 21.0018 18.648C21.3751 18.2427 21.5618 17.6773 21.5618 16.952V11.752H17.0658V9.8Z" fill="#21245F"/>
<defs>
<radialGradient id="paint0_radial_679_8559" cx="0" cy="0" r="1" gradientUnits="userSpaceOnUse" gradientTransform="translate(16 16) rotate(90) scale(16)">
<stop stop-color="#6F58FF"/>
<stop offset="0.0001" stop-color="#7C68FF" stop-opacity="0"/>
<stop offset="1" stop-color="#7660FF" stop-opacity="0.9"/>
</radialGradient>
</defs>
</svg>
