<svg width="32" height="32" viewBox="0 0 32 32" fill="none" xmlns="http://www.w3.org/2000/svg">
<rect width="32" height="32" rx="10" fill="#FFDCDC"/>
<rect width="32" height="32" rx="10" fill="url(#paint0_radial_679_8566)" fill-opacity="0.8"/>
<path d="M6.24 23.6C5.44 23.6 4.65333 23.2867 3.88 22.66C3.06667 22.0067 2.66 21.2867 2.66 20.5C2.66 20.4067 2.68667 20.36 2.74 20.36C2.75333 20.36 2.78 20.4133 2.82 20.52C2.84667 20.6133 2.88667 20.7133 2.94 20.82C2.98 20.94 3.03333 21.08 3.1 21.24C3.63333 22.2933 4.57333 22.82 5.92 22.82C6.73333 22.82 7.52667 22.62 8.3 22.22C9.12667 21.7933 9.86 21.26 10.5 20.62C11.1533 19.98 11.7133 19.2533 12.18 18.44C12.4733 17.92 12.78 17.2333 13.1 16.38C13.4333 15.5267 13.78 14.5 14.14 13.3C14.3133 12.7267 14.52 12.0133 14.76 11.16C15.0133 10.3067 15.3067 9.31333 15.64 8.18C15.36 8.24667 15.0867 8.31333 14.82 8.38C14.5667 8.44667 14.3067 8.51333 14.04 8.58C13.9333 9.7 13.7333 10.8467 13.44 12.02C13.1467 13.18 12.7533 14.3733 12.26 15.6C11.1267 18.4 9.79333 20.3467 8.26 21.44C7.55333 21.92 6.95333 22.16 6.46 22.16C6.34 22.16 6.28 22.1133 6.28 22.02C6.28 21.9533 6.33333 21.9067 6.44 21.88C6.66667 21.8533 6.86 21.8133 7.02 21.76C7.18 21.72 7.30667 21.6733 7.4 21.62C8.62667 21.06 9.79333 19.7467 10.9 17.68C11.7267 16.16 12.4067 14.5 12.94 12.7C13.14 11.9933 13.3067 11.3067 13.44 10.64C13.5733 9.97333 13.68 9.31333 13.76 8.66C9.22667 10.02 6.96 12.0533 6.96 14.76C6.96 15.5467 7.24 16.1733 7.8 16.64C8.33333 17.0667 9.00667 17.28 9.82 17.28C9.84667 17.28 9.88667 17.28 9.94 17.28C10.0067 17.2667 10.0667 17.2533 10.12 17.24C10.2 17.24 10.2667 17.24 10.32 17.24C10.3733 17.2267 10.42 17.22 10.46 17.22C10.5133 17.22 10.54 17.2333 10.54 17.26C10.54 17.3933 10.2333 17.46 9.62 17.46C8.67333 17.46 7.9 17.2467 7.3 16.82C6.58 16.3133 6.22 15.6267 6.22 14.76C6.22 11.84 8.74667 9.7 13.8 8.34C13.8267 8.04667 13.8467 7.72667 13.86 7.38C13.8733 7.03333 13.88 6.66 13.88 6.26C13.88 6.19333 13.92 6.15333 14 6.14C14.08 6.15333 14.12 6.52 14.12 7.24C14.12 7.4 14.1133 7.56667 14.1 7.74C14.1 7.9 14.0933 8.07333 14.08 8.26C14.3467 8.19333 14.62 8.12667 14.9 8.06C15.18 7.99333 15.4667 7.92667 15.76 7.86C16.08 7.07333 16.4133 6.54 16.76 6.26C16.9733 6.07333 17.2267 5.94667 17.52 5.88C17.8267 5.8 18.1733 5.76 18.56 5.76C18.9067 5.76 19.24 5.83333 19.56 5.98C19.9333 6.19333 20.12 6.45333 20.12 6.76C20.12 7.14667 19.8133 7.40667 19.2 7.54C18.9467 7.59333 18.6267 7.65333 18.24 7.72C17.8667 7.78667 17.4267 7.86 16.92 7.94C16.6267 8.9 16.3267 9.86 16.02 10.82C15.7267 11.7667 15.4267 12.7133 15.12 13.66C14.7467 14.78 14.34 15.7867 13.9 16.68C13.4733 17.5733 13.0267 18.3733 12.56 19.08C11.96 19.9733 11.3 20.7533 10.58 21.42C9.86 22.1 9.07333 22.66 8.22 23.1C7.60667 23.4333 6.94667 23.6 6.24 23.6ZM17.1 7.64C17.3667 7.61333 17.6933 7.56 18.08 7.48C18.48 7.4 18.94 7.30667 19.46 7.2C19.7933 7.06667 19.96 6.88 19.96 6.64C19.96 6.2 19.6 5.98 18.88 5.98C18.28 5.98 17.6867 6.53333 17.1 7.64ZM15.7908 23.6C14.9908 23.6 14.2041 23.2867 13.4308 22.66C12.6174 22.0067 12.2108 21.2867 12.2108 20.5C12.2108 20.4067 12.2374 20.36 12.2908 20.36C12.3041 20.36 12.3308 20.4133 12.3708 20.52C12.3974 20.6133 12.4374 20.7133 12.4908 20.82C12.5308 20.94 12.5841 21.08 12.6508 21.24C13.1841 22.2933 14.1241 22.82 15.4708 22.82C16.2841 22.82 17.0774 22.62 17.8508 22.22C18.6774 21.7933 19.4108 21.26 20.0508 20.62C20.7041 19.98 21.2641 19.2533 21.7308 18.44C22.0241 17.92 22.3308 17.2333 22.6508 16.38C22.9841 15.5267 23.3308 14.5 23.6908 13.3C23.8641 12.7267 24.0708 12.0133 24.3108 11.16C24.5641 10.3067 24.8574 9.31333 25.1908 8.18C24.9108 8.24667 24.6374 8.31333 24.3708 8.38C24.1174 8.44667 23.8574 8.51333 23.5908 8.58C23.4841 9.7 23.2841 10.8467 22.9908 12.02C22.6974 13.18 22.3041 14.3733 21.8108 15.6C20.6774 18.4 19.3441 20.3467 17.8108 21.44C17.1041 21.92 16.5041 22.16 16.0108 22.16C15.8908 22.16 15.8308 22.1133 15.8308 22.02C15.8308 21.9533 15.8841 21.9067 15.9908 21.88C16.2174 21.8533 16.4108 21.8133 16.5708 21.76C16.7308 21.72 16.8574 21.6733 16.9508 21.62C18.1774 21.06 19.3441 19.7467 20.4508 17.68C21.2774 16.16 21.9574 14.5 22.4908 12.7C22.6908 11.9933 22.8574 11.3067 22.9908 10.64C23.1241 9.97333 23.2308 9.31333 23.3108 8.66C18.7774 10.02 16.5108 12.0533 16.5108 14.76C16.5108 15.5467 16.7908 16.1733 17.3508 16.64C17.8841 17.0667 18.5574 17.28 19.3708 17.28C19.3974 17.28 19.4374 17.28 19.4908 17.28C19.5574 17.2667 19.6174 17.2533 19.6708 17.24C19.7508 17.24 19.8174 17.24 19.8708 17.24C19.9241 17.2267 19.9708 17.22 20.0108 17.22C20.0641 17.22 20.0908 17.2333 20.0908 17.26C20.0908 17.3933 19.7841 17.46 19.1708 17.46C18.2241 17.46 17.4508 17.2467 16.8508 16.82C16.1308 16.3133 15.7708 15.6267 15.7708 14.76C15.7708 11.84 18.2974 9.7 23.3508 8.34C23.3774 8.04667 23.3974 7.72667 23.4108 7.38C23.4241 7.03333 23.4308 6.66 23.4308 6.26C23.4308 6.19333 23.4708 6.15333 23.5508 6.14C23.6308 6.15333 23.6708 6.52 23.6708 7.24C23.6708 7.4 23.6641 7.56667 23.6508 7.74C23.6508 7.9 23.6441 8.07333 23.6308 8.26C23.8974 8.19333 24.1708 8.12667 24.4508 8.06C24.7308 7.99333 25.0174 7.92667 25.3108 7.86C25.6308 7.07333 25.9641 6.54 26.3108 6.26C26.5241 6.07333 26.7774 5.94667 27.0708 5.88C27.3774 5.8 27.7241 5.76 28.1108 5.76C28.4574 5.76 28.7908 5.83333 29.1108 5.98C29.4841 6.19333 29.6708 6.45333 29.6708 6.76C29.6708 7.14667 29.3641 7.40667 28.7508 7.54C28.4974 7.59333 28.1774 7.65333 27.7908 7.72C27.4174 7.78667 26.9774 7.86 26.4708 7.94C26.1774 8.9 25.8774 9.86 25.5708 10.82C25.2774 11.7667 24.9774 12.7133 24.6708 13.66C24.2974 14.78 23.8908 15.7867 23.4508 16.68C23.0241 17.5733 22.5774 18.3733 22.1108 19.08C21.5108 19.9733 20.8508 20.7533 20.1308 21.42C19.4108 22.1 18.6241 22.66 17.7708 23.1C17.1574 23.4333 16.4974 23.6 15.7908 23.6ZM26.6508 7.64C26.9174 7.61333 27.2441 7.56 27.6308 7.48C28.0308 7.4 28.4908 7.30667 29.0108 7.2C29.3441 7.06667 29.5108 6.88 29.5108 6.64C29.5108 6.2 29.1508 5.98 28.4308 5.98C27.8308 5.98 27.2374 6.53333 26.6508 7.64Z" fill="#21245F"/>
<defs>
<radialGradient id="paint0_radial_679_8566" cx="0" cy="0" r="1" gradientUnits="userSpaceOnUse" gradientTransform="translate(16 16) rotate(90) scale(16)">
<stop stop-color="#6F58FF"/>
<stop offset="0.0208333" stop-color="#7C68FF" stop-opacity="0"/>
<stop offset="0.9375" stop-color="#7660FF" stop-opacity="0.22"/>
</radialGradient>
</defs>
</svg>
