<svg width="32" height="32" viewBox="0 0 32 32" fill="none" xmlns="https://www.w3.org/2000/svg">
<rect width="32" height="32" rx="6" fill="white"/>
<path d="M12.9219 7.08008C12.7331 7.62695 12.5736 8.25521 12.4434 8.96484C12.3132 9.66797 12.248 10.4427 12.248 11.2891C12.248 11.888 12.2676 12.4935 12.3066 13.1055C12.3457 13.7174 12.3783 14.375 12.4043 15.0781C12.5605 14.9935 12.6973 14.9512 12.8145 14.9512C12.9056 14.9512 12.987 14.9837 13.0586 15.0488C13.1302 15.1074 13.166 15.1855 13.166 15.2832C13.166 15.4264 13.1009 15.5339 12.9707 15.6055C12.8405 15.6706 12.6549 15.7552 12.4141 15.8594V16.709C12.4141 18.1934 12.3262 19.554 12.1504 20.791C11.9811 22.0345 11.7044 23.1022 11.3203 23.9941C10.9362 24.8926 10.4284 25.5924 9.79688 26.0938C9.17188 26.5951 8.4069 26.8457 7.50195 26.8457C7.11784 26.8457 6.74023 26.7708 6.36914 26.6211C5.99805 26.4779 5.66602 26.2565 5.37305 25.957C5.08659 25.6576 4.85221 25.2832 4.66992 24.834C4.49414 24.3913 4.40625 23.8704 4.40625 23.2715C4.40625 22.6139 4.52669 21.9857 4.76758 21.3867C5.01497 20.7943 5.33724 20.2376 5.73438 19.7168C6.13802 19.1895 6.59701 18.7044 7.11133 18.2617C7.62565 17.8125 8.14974 17.4056 8.68359 17.041C9.22396 16.6764 9.75456 16.3574 10.2754 16.084C10.7962 15.8105 11.2617 15.5859 11.6719 15.4102C11.6589 14.7396 11.6296 14.069 11.584 13.3984C11.5384 12.7214 11.5156 12.028 11.5156 11.3184C11.5156 10.6543 11.5547 10.0163 11.6328 9.4043C11.7174 8.78581 11.8314 8.20964 11.9746 7.67578C11.7207 7.81901 11.4408 7.95247 11.1348 8.07617C10.8353 8.19987 10.5195 8.31706 10.1875 8.42773C9.85547 8.53841 9.51367 8.64583 9.16211 8.75C8.81706 8.85417 8.47526 8.95508 8.13672 9.05273C7.6224 9.20247 7.15365 9.36849 6.73047 9.55078C6.3138 9.72656 5.95573 9.93164 5.65625 10.166C5.35677 10.4004 5.1224 10.6673 4.95312 10.9668C4.79036 11.2663 4.70898 11.6113 4.70898 12.002C4.70898 12.4577 4.79688 12.8451 4.97266 13.1641C5.14844 13.4831 5.3763 13.7435 5.65625 13.9453C5.94271 14.1406 6.26172 14.2839 6.61328 14.375C6.97135 14.4596 7.32617 14.502 7.67773 14.502C7.7819 14.502 7.86654 14.5378 7.93164 14.6094C8.00326 14.681 8.03906 14.7689 8.03906 14.873C8.03906 14.9772 8 15.0651 7.92188 15.1367C7.85026 15.2018 7.76888 15.2344 7.67773 15.2344C7.23503 15.2344 6.79232 15.1725 6.34961 15.0488C5.91341 14.9186 5.51953 14.7233 5.16797 14.4629C4.81641 14.196 4.52995 13.8607 4.30859 13.457C4.08724 13.0534 3.97656 12.5781 3.97656 12.0312C3.97656 11.556 4.07096 11.1328 4.25977 10.7617C4.45508 10.3841 4.72526 10.0488 5.07031 9.75586C5.41536 9.46289 5.83203 9.20573 6.32031 8.98438C6.80859 8.76302 7.34896 8.56771 7.94141 8.39844C8.37109 8.27474 8.79753 8.14453 9.2207 8.00781C9.64388 7.87109 10.0443 7.73112 10.4219 7.58789C10.806 7.43815 11.1576 7.28516 11.4766 7.12891C11.7956 6.96615 12.069 6.79688 12.2969 6.62109C12.5573 5.89193 12.8372 5.33203 13.1367 4.94141C13.4362 4.54427 13.7227 4.3457 13.9961 4.3457C14.0547 4.3457 14.1165 4.35872 14.1816 4.38477C14.2533 4.4043 14.3184 4.4401 14.377 4.49219C14.4421 4.53776 14.4941 4.60286 14.5332 4.6875C14.5723 4.77214 14.5918 4.8763 14.5918 5C14.5918 5.28646 14.4421 5.61198 14.1426 5.97656C13.8431 6.34115 13.4362 6.70898 12.9219 7.08008ZM11.6816 16.1816C11.304 16.3444 10.8809 16.5527 10.4121 16.8066C9.94336 17.0605 9.46484 17.3568 8.97656 17.6953C8.49479 18.0339 8.02279 18.4082 7.56055 18.8184C7.10482 19.2285 6.69466 19.668 6.33008 20.1367C5.97201 20.612 5.68229 21.11 5.46094 21.6309C5.24609 22.1582 5.13867 22.7018 5.13867 23.2617C5.13867 23.737 5.20703 24.1536 5.34375 24.5117C5.48047 24.8698 5.66276 25.1693 5.89062 25.4102C6.125 25.651 6.38867 25.8301 6.68164 25.9473C6.98112 26.071 7.28711 26.1328 7.59961 26.1328C8.13997 26.1328 8.61523 26.0059 9.02539 25.752C9.43555 25.5046 9.79036 25.1562 10.0898 24.707C10.3958 24.2643 10.6497 23.7337 10.8516 23.1152C11.0534 22.5033 11.2161 21.8262 11.3398 21.084C11.4635 20.3483 11.5514 19.5671 11.6035 18.7402C11.6556 17.9069 11.6816 17.054 11.6816 16.1816ZM24.2305 7.08008C24.0417 7.62695 23.8822 8.25521 23.752 8.96484C23.6217 9.66797 23.5566 10.4427 23.5566 11.2891C23.5566 11.888 23.5762 12.4935 23.6152 13.1055C23.6543 13.7174 23.6868 14.375 23.7129 15.0781C23.8691 14.9935 24.0059 14.9512 24.123 14.9512C24.2142 14.9512 24.2956 14.9837 24.3672 15.0488C24.4388 15.1074 24.4746 15.1855 24.4746 15.2832C24.4746 15.4264 24.4095 15.5339 24.2793 15.6055C24.1491 15.6706 23.9635 15.7552 23.7227 15.8594V16.709C23.7227 18.1934 23.6348 19.554 23.459 20.791C23.2897 22.0345 23.013 23.1022 22.6289 23.9941C22.2448 24.8926 21.737 25.5924 21.1055 26.0938C20.4805 26.5951 19.7155 26.8457 18.8105 26.8457C18.4264 26.8457 18.0488 26.7708 17.6777 26.6211C17.3066 26.4779 16.9746 26.2565 16.6816 25.957C16.3952 25.6576 16.1608 25.2832 15.9785 24.834C15.8027 24.3913 15.7148 23.8704 15.7148 23.2715C15.7148 22.6139 15.8353 21.9857 16.0762 21.3867C16.3236 20.7943 16.6458 20.2376 17.043 19.7168C17.4466 19.1895 17.9056 18.7044 18.4199 18.2617C18.9342 17.8125 19.4583 17.4056 19.9922 17.041C20.5326 16.6764 21.0632 16.3574 21.584 16.084C22.1048 15.8105 22.5703 15.5859 22.9805 15.4102C22.9674 14.7396 22.9382 14.069 22.8926 13.3984C22.847 12.7214 22.8242 12.028 22.8242 11.3184C22.8242 10.6543 22.8633 10.0163 22.9414 9.4043C23.026 8.78581 23.14 8.20964 23.2832 7.67578C23.0293 7.81901 22.7493 7.95247 22.4434 8.07617C22.1439 8.19987 21.8281 8.31706 21.4961 8.42773C21.1641 8.53841 20.8223 8.64583 20.4707 8.75C20.1257 8.85417 19.7839 8.95508 19.4453 9.05273C18.931 9.20247 18.4622 9.36849 18.0391 9.55078C17.6224 9.72656 17.2643 9.93164 16.9648 10.166C16.6654 10.4004 16.431 10.6673 16.2617 10.9668C16.099 11.2663 16.0176 11.6113 16.0176 12.002C16.0176 12.4577 16.1055 12.8451 16.2812 13.1641C16.457 13.4831 16.6849 13.7435 16.9648 13.9453C17.2513 14.1406 17.5703 14.2839 17.9219 14.375C18.2799 14.4596 18.6348 14.502 18.9863 14.502C19.0905 14.502 19.1751 14.5378 19.2402 14.6094C19.3118 14.681 19.3477 14.7689 19.3477 14.873C19.3477 14.9772 19.3086 15.0651 19.2305 15.1367C19.1589 15.2018 19.0775 15.2344 18.9863 15.2344C18.5436 15.2344 18.1009 15.1725 17.6582 15.0488C17.222 14.9186 16.8281 14.7233 16.4766 14.4629C16.125 14.196 15.8385 13.8607 15.6172 13.457C15.3958 13.0534 15.2852 12.5781 15.2852 12.0312C15.2852 11.556 15.3796 11.1328 15.5684 10.7617C15.7637 10.3841 16.0339 10.0488 16.3789 9.75586C16.724 9.46289 17.1406 9.20573 17.6289 8.98438C18.1172 8.76302 18.6576 8.56771 19.25 8.39844C19.6797 8.27474 20.1061 8.14453 20.5293 8.00781C20.9525 7.87109 21.3529 7.73112 21.7305 7.58789C22.1146 7.43815 22.4661 7.28516 22.7852 7.12891C23.1042 6.96615 23.3776 6.79688 23.6055 6.62109C23.8659 5.89193 24.1458 5.33203 24.4453 4.94141C24.7448 4.54427 25.0312 4.3457 25.3047 4.3457C25.3633 4.3457 25.4251 4.35872 25.4902 4.38477C25.5618 4.4043 25.627 4.4401 25.6855 4.49219C25.7507 4.53776 25.8027 4.60286 25.8418 4.6875C25.8809 4.77214 25.9004 4.8763 25.9004 5C25.9004 5.28646 25.7507 5.61198 25.4512 5.97656C25.1517 6.34115 24.7448 6.70898 24.2305 7.08008ZM22.9902 16.1816C22.6126 16.3444 22.1895 16.5527 21.7207 16.8066C21.252 17.0605 20.7734 17.3568 20.2852 17.6953C19.8034 18.0339 19.3314 18.4082 18.8691 18.8184C18.4134 19.2285 18.0033 19.668 17.6387 20.1367C17.2806 20.612 16.9909 21.11 16.7695 21.6309C16.5547 22.1582 16.4473 22.7018 16.4473 23.2617C16.4473 23.737 16.5156 24.1536 16.6523 24.5117C16.7891 24.8698 16.9714 25.1693 17.1992 25.4102C17.4336 25.651 17.6973 25.8301 17.9902 25.9473C18.2897 26.071 18.5957 26.1328 18.9082 26.1328C19.4486 26.1328 19.9238 26.0059 20.334 25.752C20.7441 25.5046 21.099 25.1562 21.3984 24.707C21.7044 24.2643 21.9583 23.7337 22.1602 23.1152C22.362 22.5033 22.5247 21.8262 22.6484 21.084C22.7721 20.3483 22.86 19.5671 22.9121 18.7402C22.9642 17.9069 22.9902 17.054 22.9902 16.1816Z" fill="#570DFF"/>
</svg>
