<svg width="24" height="24" viewBox="0 0 24 24" fill="none" xmlns="http://www.w3.org/2000/svg">
<path d="M6 21V11.9795L3.36388 9.42024L1 8V19.4081C1 20.2889 1.67246 21 2.50003 21H6Z" fill="#4285F4"/>
<path d="M18 21H21.5C22.33 21 23 20.2863 23 19.4081V8L20.3225 9.62672L18 11.9795V21Z" fill="#34A853"/>
<path d="M6.33734 12.0909L6 8.46772L6.33734 5L11.98 9.90912L17.6227 5L18 8.2805L17.6227 12.0909L11.98 17L6.33734 12.0909Z" fill="#EA4335"/>
<path d="M18 4.69137V12L23 7.78349V5.53465C23 3.44891 20.8825 2.25989 19.4001 3.51075L18 4.69137Z" fill="#FBBC04"/>
<path d="M1 7.78352L3.29959 9.72285L6 12V4.6914L4.59991 3.51079C3.11492 2.25984 1 3.44895 1 5.53458V7.78342V7.78352Z" fill="#C5221F"/>
</svg>
